#!OML:ASF E:\Mandelcareful walks\Project 1\Capture day 1\Session 1\Subject1.ASF
:FULLY-SPECIFIED
:DEGREES
670
root 44.8219 16.7746 -2.06919 549.054 -34.5167 530.795
lowerback 9.65588 1.56994 3.41407
upperback 6.74553 1.83201 -0.0852295
thorax 1.72974 0.822968 -2.15231
lowerneck -20.4996 10.8683 6.22413
upperneck 24.2653 17.8438 -17.1316
head 14.0695 5.93999 -4.42225
rclavicle 5.56597e-015 3.33958e-014
rhumerus -21.9626 -3.08328 -73.0393
rradius 33.7993
rwrist -17.8179
rhand -15.6941 -31.4024
rfingers 7.12502
rthumb 10.4952 -61.1204
lclavicle 5.56597e-015 3.33958e-014
lhumerus -31.0377 6.34877 80.2976
lradius 36.5036
lwrist 19.291
lhand -27.1207 -13.9515
lfingers 7.12502
lthumb -0.536689 16.0276
rfemur -10.6565 -12.0985 11.618
rtibia 28.0349
rfoot -20.3712 -3.29919
rtoes -4.54055
lfemur -23.1969 -0.208164 -18.3016
ltibia 37.1827
lfoot -14.8137 -2.19736
ltoes -24.6553
671
root 44.9196 16.7879 -2.06612 549.445 -36.5271 530.642
lowerback 9.39321 1.55212 3.53229
upperback 6.58997 1.84246 0.00576202
thorax 1.71165 0.841605 -2.12006
lowerneck -20.5704 10.6686 6.17702
upperneck 24.5067 17.5839 -17.0367
head 14.1301 5.81958 -4.44239
rclavicle -1.10127e-013 4.29375e-014
rhumerus -22.5234 -3.68605 -72.5527
rradius 34.1423
rwrist -18.4457
rhand -15.7451 -31.3893
rfingers 7.12502
rthumb 10.4461 -61.1098
lclavicle -1.10127e-013 4.29375e-014
lhumerus -31.4508 6.27995 80.8987
lradius 36.1271
lwrist 18.865
lhand -26.8805 -14.199
lfingers 7.12502
lthumb -0.304706 15.7805
rfemur -10.3915 -12.8187 11.9016
rtibia 27.7113
rfoot -20.9812 -3.43639
rtoes -5.98174
lfemur -23.0679 0.55446 -18.3718
ltibia 37.263
lfoot -14.5072 -1.10946
ltoes -20.6811
672
root 45.0098 16.7996 -2.0644 549.901 -38.3275 530.352
lowerback 9.2285 1.56339 3.33099
upperback 6.35736 1.87711 0.167273
thorax 1.5446 0.858441 -1.84159
lowerneck -20.4765 10.4761 5.92667
upperneck 24.7224 17.3701 -16.8825
head 14.1228 5.71465 -4.39932
rclavicle -7.39479e-014 -4.77083e-015
rhumerus -23.1827 -3.84965 -72.044
rradius 34.4838
rwrist -19.0192
rhand -16.0168 -31.7149
rfingers 7.12502
rthumb 10.184 -61.4484
lclavicle -7.39479e-014 -4.77083e-015
lhumerus -32.0405 6.54891 81.5413
lradius 35.7729
lwrist 18.2925
lhand -26.6601 -13.8757
lfingers 7.12502
lthumb -0.0918353 16.104
rfemur -10.1148 -13.5856 12.0609
rtibia 27.264
rfoot -21.4073 -3.62593
rtoes -8.02752
lfemur -22.9202 1.58342 -18.5271
ltibia 37.3632
lfoot -14.2726 -0.394497
ltoes -18.4666
673
root 45.0951 16.8113 -2.06087 550.421 -40.0832 529.912
lowerback 9.07371 1.54759 2.95705
upperback 6.19258 1.85404 0.348115
thorax 1.43293 0.839515 -1.44212
lowerneck -20.5337 10.3175 5.61425
upperneck 24.9414 17.2478 -16.796
head 14.1685 5.62243 -4.3491
rclavicle -1.86858e-014 6.36111e-015
rhumerus -23.5091 -4.06698 -71.5743
rradius 34.4882
rwrist -19.1213
rhand -16.0844 -31.8337
rfingers 7.12502
rthumb 10.1188 -61.5704
lclavicle -1.86858e-014 6.36111e-015
lhumerus -32.5928 6.75025 82.3141
lradius 35.3846
lwrist 18.0653
lhand -26.845 -14.0233
lfingers 7.12502
lthumb -0.270375 15.9563
rfemur -9.77557 -14.1419 12.1556
rtibia 26.7265
rfoot -21.7347 -4.49724
rtoes -10.3131
lfemur -22.7238 2.4441 -18.698
ltibia 37.5333
lfoot -14.6895 0.849782
ltoes -19.2252
674
root 45.174 16.8264 -2.05447 550.776 -41.9249 529.628
lowerback 8.99716 1.52401 2.87753
upperback 6.04196 1.83977 0.477666
thorax 1.30863 0.833761 -1.26307
lowerneck -20.5874 10.1171 5.46536
upperneck 25.1833 17.0142 -16.6958
head 14.2217 5.50257 -4.34494
rclavicle 7.67309e-014 -1.59028e-014
rhumerus -23.7914 -4.58175 -71.2269
rradius 34.2279
rwrist -18.8657
rhand -15.9948 -31.7313
rfingers 7.12502
rthumb 10.2052 -61.4638
lclavicle 7.67309e-014 -1.59028e-014
lhumerus -33.1563 6.64023 83.0012
lradius 35.1936
lwrist 17.6223
lhand -27.0324 -13.8729
lfingers 7.12502
lthumb -0.451426 16.1063
rfemur -9.35888 -14.6884 12.4266
rtibia 26.1866
rfoot -22.2715 -5.5726
rtoes -11.1974
lfemur -22.4112 2.99781 -18.6404
ltibia 37.739
lfoot -14.9403 2.05601
ltoes -18.938
675
root 45.258 16.8367 -2.04786 550.883 -43.337 529.662
lowerback 8.92682 1.71661 2.85459
upperback 5.9831 2.10485 0.611047
thorax 1.29075 0.967743 -1.13088
lowerneck -20.6626 9.84517 5.37935
upperneck 25.3415 16.6524 -16.6209
head 14.2344 5.33896 -4.38391
rclavicle -2.06736e-014 -6.67916e-014
rhumerus -24.0208 -5.14605 -70.9653
rradius 33.9719
rwrist -18.4109
rhand -15.7955 -31.56
rfingers 7.12502
rthumb 10.3974 -61.2829
lclavicle -2.06736e-014 -6.67916e-014
lhumerus -33.5414 6.33889 83.6496
lradius 34.9218
lwrist 17.1422
lhand -28.5772 -14.2961
lfingers 7.12502
lthumb -1.94342 15.6748
rfemur -9.07252 -14.8569 12.9535
rtibia 25.6738
rfoot -22.938 -6.57866
rtoes -11.3253
lfemur -22.0256 4.05366 -18.2766
ltibia 37.9368
lfoot -14.7458 2.6623
ltoes -17.8843
676
root 45.3318 16.8374 -2.03772 551.152 -44.8938 529.476
lowerback 8.40586 1.8361 2.97663
upperback 6.24095 2.24185 0.589388
thorax 1.85817 1.04797 -1.20967
lowerneck -21.1341 9.61392 5.15925
upperneck 25.4532 16.3846 -16.4837
head 14.3062 5.19557 -4.33932
rclavicle 2.78299e-015 1.74931e-014
rhumerus -23.7094 -5.86963 -70.9159
rradius 33.6076
rwrist -17.6294
rhand -15.5517 -31.4854
rfingers 7.12502
rthumb 10.6326 -61.1964
lclavicle 2.78299e-015 1.74931e-014
lhumerus -33.4894 5.9235 84.2409
lradius 34.7913
lwrist 17.1856
lhand -29.4507 -13.744
lfingers 7.12502
lthumb -2.78701 16.2176
rfemur -8.77301 -15.055 13.2766
rtibia 25.2102
rfoot -23.5405 -7.51868
rtoes -12.7426
lfemur -21.6982 4.63776 -17.9523
ltibia 38.1062
lfoot -14.6513 3.23201
ltoes -16.8257
677
root 45.3923 16.8347 -2.02726 551.425 -46.3299 529.169
lowerback 8.20513 1.88601 2.88041
upperback 6.29233 2.29942 0.623455
thorax 2.01847 1.07781 -1.11678
lowerneck -21.4788 9.60065 4.84455
upperneck 25.8115 16.4767 -16.2622
head 14.4916 5.19042 -4.18283
rclavicle 9.14409e-015 2.06736e-014
rhumerus -23.5824 -6.11197 -70.9226
rradius 33.1674
rwrist -16.9182
rhand -15.5134 -31.63
rfingers 7.12502
rthumb 10.6696 -61.3391
lclavicle 9.14409e-015 2.06736e-014
lhumerus -33.8586 5.76734 84.757
lradius 34.937
lwrist 17.5399
lhand -23.8114 -8.75428
lfingers 7.12502
lthumb 2.65947 21.2089
rfemur -8.42608 -15.2149 13.4159
rtibia 24.8611
rfoot -23.9499 -8.33855
rtoes -13.2284
lfemur -21.1579 4.8899 -17.6847
ltibia 38.2461
lfoot -14.8448 4.10967
ltoes -15.2754
678
root 45.4453 16.8382 -2.00659 551.811 -47.7303 528.789
lowerback 8.00296 1.9162 2.84429
upperback 6.32684 2.33595 0.660951
thorax 2.16375 1.09898 -1.05261
lowerneck -21.6877 9.59117 4.58856
upperneck 26.003 16.5723 -16.1906
head 14.6019 5.19044 -4.093
rclavicle -3.77691e-014 2.70347e-014
rhumerus -23.546 -6.01012 -70.9685
rradius 32.9593
rwrist -16.6421
rhand -15.4945 -31.6515
rfingers 7.12502
rthumb 10.6878 -61.3596
lclavicle -3.77691e-014 2.70347e-014
lhumerus -34.0758 5.65956 85.2578
lradius 34.9786
lwrist 17.3863
lhand -27.5823 -11.4364
lfingers 7.12502
lthumb -0.982501 18.5411
rfemur -8.20022 -15.3808 13.4604
rtibia 24.6081
rfoot -24.5178 -9.03189
rtoes -10.6597
lfemur -20.6837 5.25662 -17.5357
ltibia 38.3848
lfoot -14.9674 4.96544
ltoes -14.2624
679
root 45.493 16.8505 -1.97114 552.454 -49.3238 528.29
lowerback 8.00216 1.8155 2.81957
upperback 6.09534 2.22964 0.739866
thorax 1.91303 1.04849 -0.95591
lowerneck -21.513 9.58694 4.45711
upperneck 26.1081 16.6522 -16.2812
head 14.6234 5.19769 -4.10261
rclavicle 1.15295e-014 -9.54166e-015
rhumerus -23.9649 -5.23889 -70.9918
rradius 33.1402
rwrist -16.8229
rhand -15.6133 -31.7258
rfingers 7.12502
rthumb 10.5732 -61.4399
lclavicle 1.15295e-014 -9.54166e-015
lhumerus -34.7169 5.55795 85.8192
lradius 35.0043
lwrist 16.9606
lhand -28.8561 -12.2817
lfingers 7.12502
lthumb -2.21276 17.6866
rfemur -8.17273 -15.688 13.4569
rtibia 24.403
rfoot -25.2518 -9.65239
rtoes -8.38332
lfemur -20.5481 5.63688 -17.4923
ltibia 38.5685
lfoot -14.8733 5.66524
ltoes -13.6838
680
root 45.5411 16.8579 -1.93956 552.929 -50.7903 527.95
lowerback 7.92026 1.82727 3.00276
upperback 6.00826 2.27039 0.647055
thorax 1.88107 1.08163 -1.15497
lowerneck -21.4925 9.53282 4.5618
upperneck 26.1581 16.5518 -16.2627
head 14.6339 5.17323 -4.13583
rclavicle -3.18055e-015 -3.18055e-015
rhumerus -24.1914 -5.19788 -71.2559
rradius 33.1693
rwrist -16.7417
rhand -15.5997 -31.7368
rfingers 7.12502
rthumb 10.5863 -61.4501
lclavicle -3.18055e-015 -3.18055e-015
lhumerus -35.1003 4.96105 86.1918
lradius 34.9753
lwrist 16.4893
lhand -29.2706 -12.7282
lfingers 7.12502
lthumb -2.61305 17.2356
rfemur -8.1809 -15.9438 13.6224
rtibia 24.2354
rfoot -25.7137 -10.658
rtoes -8.74213
lfemur -20.3738 6.46839 -17.3174
ltibia 38.7973
lfoot -14.5778 6.0568
ltoes -12.94
